{
	"asset":{
		"generator":"Khronos glTF Blender I/O v4.2.83",
		"version":"2.0"
	},
	"scene":0,
	"scenes":[
		{
			"extras":{
				"blenvy_scene_type":2,
				"ypui":{
					"expand_channels":0,
					"expand_mask_channels":0,
					"show_bake_targets":0,
					"show_channels":1,
					"show_layers":1,
					"show_materials":0,
					"show_object":0,
					"show_stats":0,
					"show_support":0,
					"show_test":0,
					"tree_name":""
				},
				"skein_extension_properties":{}
			},
			"name":"Library",
			"nodes":[
				7,
				8,
				9,
				10,
				11,
				12,
				13
			]
		}
	],
	"nodes":[
		{
			"extras":{
				"components_meta":{
					"components":[
						{
							"short_name":"Kart",
							"long_name":"bevy_bonedriver::kart_controller::components::Kart",
							"D0D7E9E5E6DF0DD17C2597E07A5FD6DE1EF6236C51125135_ui":{
								"cof":0.30000001192092896,
								"engine_torque":10.0,
								"peak_torque":100.0,
								"front_area":2.200000047683716,
								"min_torque":50.0,
								"turn_angle":0.0,
								"wheelbase_length":2.0,
								"weight_factor":0.019999999552965164
							}
						}
					]
				},
				"bevy_components":"{\"bevy_bonedriver::kart_controller::components::Kart\": \"(cof: 0.30000001192092896, engine_torque: 10.0, front_area: 2.200000047683716, min_torque: 50.0, peak_torque: 100.0, turn_angle: 0.0, weight_factor: 0.019999999552965164, wheelbase_length: 2.0)\"}"
			},
			"mesh":0,
			"name":"car_engine",
			"translation":[
				0,
				0.12173725664615631,
				0
			]
		},
		{
			"extras":{
				"components_meta":{
					"components":[
						{
							"short_name":"Kart",
							"long_name":"bevy_bonedriver::kart_controller::components::Kart",
							"D0D7E9E5E6DF0DD17C2597E07A5FD6DE1EF6236C51125135_ui":{
								"cof":0.30000001192092896,
								"engine_torque":10.0,
								"peak_torque":100.0,
								"front_area":2.200000047683716,
								"min_torque":50.0,
								"turn_angle":0.0,
								"wheelbase_length":2.0,
								"weight_factor":0.019999999552965164
							}
						}
					]
				},
				"bevy_components":"{\"bevy_bonedriver::kart_controller::components::Kart\": \"(cof: 0.30000001192092896, engine_torque: 10.0, front_area: 2.200000047683716, min_torque: 50.0, peak_torque: 100.0, turn_angle: 0.0, weight_factor: 0.019999999552965164, wheelbase_length: 2.0)\"}",
				"skein_two":[
					{
						"name":"CharacterController",
						"selected_type_path":"bevy_bonedriver::kart_controller::components::CharacterController"
					}
				],
				"active_component_index":0,
				"skein":[
					{
						"bevy_bonedriver::kart_controller::components::CharacterController":{}
					}
				]
			},
			"mesh":1,
			"name":"front_carriage",
			"rotation":[
				-0.035580556839704514,
				0,
				0,
				0.999366819858551
			],
			"translation":[
				-0.001393115264363587,
				-0.05665363371372223,
				0.19036196172237396
			]
		},
		{
			"mesh":2,
			"name":"steering_rod",
			"rotation":[
				0,
				0.9650005102157593,
				0.26224806904792786,
				6.313507583399769e-08
			],
			"scale":[
				0.06120864674448967,
				1.1697899103164673,
				0.1485181599855423
			],
			"translation":[
				0,
				1.4692250490188599,
				-1.0778615474700928
			]
		},
		{
			"children":[
				0,
				1,
				2
			],
			"extras":{
				"components_meta":{
					"components":[
						{
							"short_name":"Kart",
							"long_name":"bevy_bonedriver::kart_controller::components::Kart",
							"D0D7E9E5E6DF0DD17C2597E07A5FD6DE1EF6236C51125135_ui":{
								"cof":0.30000001192092896,
								"engine_torque":10.0,
								"peak_torque":100.0,
								"front_area":2.200000047683716,
								"min_torque":50.0,
								"turn_angle":0.0,
								"wheelbase_length":2.0,
								"weight_factor":0.019999999552965164
							}
						}
					]
				},
				"bevy_components":"{\"bevy_bonedriver::kart_controller::components::Kart\": \"(cof: 0.30000001192092896, engine_torque: 10.0, front_area: 2.200000047683716, min_torque: 50.0, peak_torque: 100.0, turn_angle: 0.0, weight_factor: 0.019999999552965164, wheelbase_length: 2.0)\"}"
			},
			"name":"car_body",
			"rotation":[
				-0.056585513055324554,
				0,
				0,
				0.9983978271484375
			],
			"scale":[
				0.7637665271759033,
				0.3147704005241394,
				0.3147704005241394
			],
			"translation":[
				-0.0030706855468451977,
				0.01145261526107788,
				-0.23894914984703064
			]
		},
		{
			"extras":{
				"MaterialInfos":"([(name: \"colormap\", path: \"materials/colormap.glb\")])",
				"components_meta":{
					"components":[
						{
							"short_name":"Wheel",
							"long_name":"bevy_bonedriver::kart_controller::components::Wheel",
							"69FD19807C6F6BD4DEE0FD03B7AD86D2590CD3F045DBF3B3_ui":{
								"steering_curve":{
									"selection":5
								},
								"radius":0.2800000011920929,
								"steer_wheel":0,
								"steering_angle":0.0,
								"handling":0.0,
								"drive_wheel":1,
								"brakes":1,
								"max_steering_angle":0.0
							}
						}
					]
				},
				"bevy_components":"{\"bevy_bonedriver::kart_controller::components::Wheel\": \"(brakes: true, drive_wheel: true, handling: 0.0, max_steering_angle: 0.0, radius: 0.2800000011920929, steer_wheel: false, steering_curve: CubicOut)\"}"
			},
			"mesh":3,
			"name":"wheel-b",
			"translation":[
				-0.0030706855468451977,
				-0.1541202962398529,
				0.3324037790298462
			]
		},
		{
			"extras":{
				"MaterialInfos":"([(name: \"colormap\", path: \"materials/colormap.glb\")])",
				"components_meta":{
					"components":[
						{
							"short_name":"Wheel",
							"long_name":"bevy_bonedriver::kart_controller::components::Wheel",
							"69FD19807C6F6BD4DEE0FD03B7AD86D2590CD3F045DBF3B3_ui":{
								"steering_curve":{
									"selection":5
								},
								"radius":0.2800000011920929,
								"steer_wheel":1,
								"steering_angle":0.800000011920929,
								"handling":0.800000011920929,
								"drive_wheel":0,
								"brakes":0,
								"max_steering_angle":0.699999988079071
							}
						}
					]
				},
				"bevy_components":"{\"bevy_bonedriver::kart_controller::components::Wheel\": \"(brakes: false, drive_wheel: false, handling: 0.800000011920929, max_steering_angle: 0.699999988079071, radius: 0.2800000011920929, steer_wheel: true, steering_curve: CubicOut)\"}"
			},
			"mesh":4,
			"name":"wheel-u",
			"translation":[
				-0.003070683218538761,
				-0.15412041544914246,
				-0.8515024185180664
			]
		},
		{
			"children":[
				3,
				4,
				5
			],
			"extras":{
				"components_meta":{
					"components":[
						{
							"short_name":"RigidBody",
							"long_name":"avian3d::dynamics::rigid_body::RigidBody",
							"50AB42C4BEF0E368C9BC5962D2BFE964982A868BBD2112A7_ui":{
								"selection":0
							}
						},
						{
							"short_name":"RigidBodyDisabled",
							"long_name":"avian3d::dynamics::rigid_body::RigidBodyDisabled",
							"7C3547BD5373DF5CC198CB4F09AF6567776C65A7D4D029E4_ui":{}
						},
						{
							"short_name":"SleepingDisabled",
							"long_name":"avian3d::dynamics::rigid_body::SleepingDisabled",
							"31AC2DED2A7751CD01EC15DE508AD80CC139F7CFBC0A30F5_ui":{}
						},
						{
							"short_name":"Suspension",
							"long_name":"bevy_bonedriver::kart_controller::components::Suspension",
							"09A289C50B842CAED6E3C1B61F4BEBD594257A177E9927B1_ui":{
								"damping":0.699999988079071,
								"stiffness":50.0,
								"spring_length":0.10000000149011612,
								"spring_travel":0.10000000149011612
							}
						},
						{
							"short_name":"Mass",
							"long_name":"avian3d::dynamics::rigid_body::mass_properties::components::Mass",
							"DB5FAEF5B107C88A1C3E1AD23EBC2E7F8071C8DA0E19C0B2_ui":{
								"0":172.0
							}
						}
					]
				},
				"bevy_components":"{\"avian3d::dynamics::rigid_body::RigidBody\": \"Dynamic\", \"avian3d::dynamics::rigid_body::RigidBodyDisabled\": \"()\", \"avian3d::dynamics::rigid_body::SleepingDisabled\": \"()\", \"bevy_bonedriver::kart_controller::components::Suspension\": \"(damping: 0.699999988079071, spring_length: 0.10000000149011612, spring_travel: 0.10000000149011612, stiffness: 50.0)\", \"avian3d::dynamics::rigid_body::mass_properties::components::Mass\": \"(172.0)\"}",
				"skein_two":[
					{
						"name":"RigidBody",
						"selected_type_path":"avian3d::dynamics::rigid_body::RigidBody"
					},
					{
						"name":"Suspension",
						"selected_type_path":"bevy_bonedriver::kart_controller::components::Suspension",
						"bevy_bonedriver::kart_controller::components::Suspension":{
							"damping":0.5,
							"spring_length":0.4000000059604645,
							"spring_travel":0.10000000149011612,
							"stiffness":50.0
						}
					}
				],
				"active_component_index":1,
				"skein":[
					{
						"avian3d::dynamics::rigid_body::RigidBody":"Dynamic"
					},
					{
						"bevy_bonedriver::kart_controller::components::Suspension":{
							"damping":0.5,
							"spring_length":0.4000000059604645,
							"spring_travel":0.10000000149011612,
							"stiffness":50.0
						}
					}
				]
			},
			"mesh":5,
			"name":"suspension",
			"translation":[
				0.0030706855468451977,
				0.1541202962398529,
				0.8515026569366455
			]
		},
		{
			"children":[
				6
			],
			"extras":{
				"skein_two":[
					{
						"name":"CharacterController",
						"selected_type_path":"bevy_bonedriver::kart_controller::components::CharacterController"
					}
				],
				"active_component_index":0,
				"skein":[
					{
						"bevy_bonedriver::kart_controller::components::CharacterController":{}
					}
				]
			},
			"name":"Parcy-Kart",
			"translation":[
				9.896273695630953e-05,
				0.21459311246871948,
				-0.20591236650943756
			]
		},
		{
			"extras":{
				"MaterialInfos":"([(name: \"moped_body\", path: \"materials/moped_body.glb\")])",
				"components_meta":{
					"components":[]
				},
				"bevy_components":"{}"
			},
			"mesh":6,
			"name":"car_body_sculpt_tough",
			"translation":[
				0,
				0.6222038269042969,
				0.32284015417099
			]
		},
		{
			"extras":{
				"components_meta":{
					"components":[
						{
							"short_name":"Kart",
							"long_name":"bevy_bonedriver::kart_controller::components::Kart",
							"D0D7E9E5E6DF0DD17C2597E07A5FD6DE1EF6236C51125135_ui":{
								"cof":0.30000001192092896,
								"engine_torque":10.0,
								"peak_torque":300.0,
								"front_area":2.200000047683716,
								"min_torque":100.0,
								"turn_angle":0.0,
								"wheelbase_length":2.0,
								"weight_factor":0.019999999552965164
							}
						}
					]
				},
				"bevy_components":"{\"bevy_bonedriver::kart_controller::components::Kart\": \"(cof: 0.30000001192092896, engine_torque: 10.0, front_area: 2.200000047683716, min_torque: 100.0, peak_torque: 300.0, turn_angle: 0.0, weight_factor: 0.019999999552965164, wheelbase_length: 2.0)\"}"
			},
			"mesh":7,
			"name":"car_body.001",
			"translation":[
				9.896273695630953e-05,
				0.43490779399871826,
				0.44313567876815796
			]
		},
		{
			"extras":{
				"components_meta":{
					"components":[
						{
							"short_name":"Kart",
							"long_name":"bevy_bonedriver::kart_controller::components::Kart",
							"D0D7E9E5E6DF0DD17C2597E07A5FD6DE1EF6236C51125135_ui":{
								"cof":0.30000001192092896,
								"engine_torque":10.0,
								"peak_torque":100.0,
								"front_area":2.200000047683716,
								"min_torque":50.0,
								"turn_angle":0.0,
								"wheelbase_length":2.0,
								"weight_factor":0.019999999552965164
							}
						}
					]
				},
				"bevy_components":"{\"bevy_bonedriver::kart_controller::components::Kart\": \"(cof: 0.30000001192092896, engine_torque: 10.0, front_area: 2.200000047683716, min_torque: 50.0, peak_torque: 100.0, turn_angle: 0.0, weight_factor: 0.019999999552965164, wheelbase_length: 2.0)\"}"
			},
			"mesh":8,
			"name":"front_carriage.001",
			"rotation":[
				-0.09253757447004318,
				0,
				0,
				0.995709240436554
			],
			"scale":[
				0.7637665271759033,
				0.3147704005241394,
				0.3147704005241394
			],
			"translation":[
				9.896306437440217e-05,
				0.5067537426948547,
				0.25588464736938477
			]
		},
		{
			"extras":{
				"components_meta":{}
			},
			"name":"Empty",
			"rotation":[
				0.5,
				0.5,
				-0.4999999403953552,
				0.5000000596046448
			],
			"scale":[
				0.5194703340530396,
				0.5194703340530396,
				0.5194703340530396
			],
			"translation":[
				9.896273695630953e-05,
				1.56499183177948,
				0.26153337955474854
			]
		},
		{
			"mesh":9,
			"name":"crossing",
			"scale":[
				1,
				1,
				0.13370168209075928
			],
			"translation":[
				9.896273695630953e-05,
				0.21459311246871948,
				-0.20591236650943756
			]
		},
		{
			"mesh":10,
			"name":"arch",
			"scale":[
				0.310519814491272,
				0.310519814491272,
				0.310519814491272
			],
			"translation":[
				-1.3431495428085327,
				-0.48190611600875854,
				-0.20591245591640472
			]
		}
	],
	"materials":[
		{
			"doubleSided":true,
			"extras":{
				"yp":{
					"active_ypaint_node":""
				},
				"components_meta":{}
			},
			"name":"colormap",
			"pbrMetallicRoughness":{
				"baseColorTexture":{
					"index":0
				},
				"metallicFactor":0
			}
		},
		{
			"doubleSided":true,
			"name":"Material.002",
			"pbrMetallicRoughness":{
				"baseColorFactor":[
					0.800000011920929,
					0.800000011920929,
					0.800000011920929,
					1
				],
				"metallicFactor":0,
				"roughnessFactor":0.5
			}
		},
		{
			"doubleSided":true,
			"extras":{
				"yp":{
					"active_ypaint_node":""
				},
				"components_meta":{}
			},
			"name":"moped_body",
			"pbrMetallicRoughness":{
				"baseColorFactor":[
					0.800070583820343,
					0.11294864118099213,
					0.10677825659513474,
					1
				],
				"metallicFactor":0.3819444477558136,
				"roughnessFactor":0.1388888955116272
			}
		}
	],
	"meshes":[
		{
			"name":"Cube.008",
			"primitives":[
				{
					"attributes":{
						"POSITION":0,
						"NORMAL":1,
						"TEXCOORD_0":2,
						"TANGENT":3
					},
					"indices":4
				}
			]
		},
		{
			"name":"Cube.010",
			"primitives":[
				{
					"attributes":{
						"POSITION":5,
						"NORMAL":6,
						"TEXCOORD_0":7,
						"TANGENT":8
					},
					"indices":9
				}
			]
		},
		{
			"name":"Cylinder",
			"primitives":[
				{
					"attributes":{
						"POSITION":10,
						"NORMAL":11,
						"TEXCOORD_0":12
					},
					"indices":13
				}
			]
		},
		{
			"extras":{
				"components_meta":{},
				"skein_two":[
					{
						"name":"Wheel",
						"selected_type_path":"bevy_bonedriver::kart_controller::components::Wheel",
						"bevy_bonedriver::kart_controller::components::Wheel":{
							"steering_curve":{
								"skein_enum_index":2
							},
							"brakes":1,
							"drive_wheel":1,
							"radius":0.2800000011920929,
							"max_steering_angle":0.800000011920929,
							"handling":0.019999999552965164
						}
					}
				],
				"active_component_index":0,
				"skein":[
					{
						"bevy_bonedriver::kart_controller::components::Wheel":{
							"brakes":true,
							"drive_wheel":true,
							"handling":0.019999999552965164,
							"max_steering_angle":0.800000011920929,
							"radius":0.2800000011920929,
							"steer_wheel":false,
							"steering_curve":"QuadraticOut"
						}
					}
				]
			},
			"name":"wheel-fl.001",
			"primitives":[
				{
					"attributes":{
						"POSITION":14,
						"NORMAL":15,
						"TEXCOORD_0":16,
						"TANGENT":17
					},
					"indices":18,
					"material":0
				}
			]
		},
		{
			"extras":{
				"components_meta":{},
				"skein_two":[
					{
						"name":"Wheel",
						"selected_type_path":"bevy_bonedriver::kart_controller::components::Wheel",
						"bevy_bonedriver::kart_controller::components::Wheel":{
							"steering_curve":{
								"skein_enum_index":2
							},
							"brakes":1,
							"steer_wheel":1,
							"handling":0.019999999552965164,
							"max_steering_angle":0.800000011920929,
							"radius":0.2800000011920929
						}
					}
				],
				"active_component_index":0,
				"skein":[
					{
						"bevy_bonedriver::kart_controller::components::Wheel":{
							"brakes":true,
							"drive_wheel":false,
							"handling":0.019999999552965164,
							"max_steering_angle":0.800000011920929,
							"radius":0.2800000011920929,
							"steer_wheel":true,
							"steering_curve":"QuadraticOut"
						}
					}
				]
			},
			"name":"wheel-fl",
			"primitives":[
				{
					"attributes":{
						"POSITION":19,
						"NORMAL":20,
						"TEXCOORD_0":21,
						"TANGENT":22
					},
					"indices":23,
					"material":0
				}
			]
		},
		{
			"extras":{
				"components_meta":{
					"components":[
						{
							"short_name":"ColliderConstructor",
							"long_name":"avian3d::collision::collider::constructor::ColliderConstructor",
							"7AC23000116718A5137EE168725B54AA0A1891A408BE726D_ui":{
								"variant_Sphere":{},
								"selection":1,
								"variant_Cuboid":{
									"y_length":0.10000000149011612,
									"z_length":0.5,
									"x_length":0.30000001192092896
								}
							}
						}
					]
				},
				"bevy_components":"{\"avian3d::collision::collider::constructor::ColliderConstructor\": \"Cuboid(x_length: 0.30000001192092896, y_length: 0.10000000149011612, z_length: 0.5)\"}",
				"skein_two":[
					{
						"name":"ColliderConstructor",
						"selected_type_path":"avian3d::collision::collider::constructor::ColliderConstructor",
						"avian3d::collision::collider::constructor::ColliderConstructor":{
							"Sphere":{},
							"skein_enum_index":1,
							"Cuboid":{
								"y_length":0.10000000149011612,
								"x_length":0.3659999966621399,
								"z_length":1.149999976158142
							}
						}
					}
				],
				"active_component_index":0,
				"skein":[
					{
						"avian3d::collision::collider::constructor::ColliderConstructor":{
							"Cuboid":{
								"x_length":0.3659999966621399,
								"y_length":0.10000000149011612,
								"z_length":1.149999976158142
							}
						}
					}
				]
			},
			"name":"Cube",
			"primitives":[
				{
					"attributes":{
						"POSITION":24,
						"NORMAL":25,
						"TEXCOORD_0":26,
						"TANGENT":27
					},
					"indices":28,
					"material":1
				}
			]
		},
		{
			"extras":{
				"components_meta":{}
			},
			"name":"Cube.005",
			"primitives":[
				{
					"attributes":{
						"POSITION":29,
						"NORMAL":30,
						"TEXCOORD_0":31,
						"TANGENT":32
					},
					"indices":33,
					"material":2
				}
			]
		},
		{
			"name":"Cube.006",
			"primitives":[
				{
					"attributes":{
						"POSITION":34,
						"NORMAL":35,
						"TEXCOORD_0":36,
						"TANGENT":37
					},
					"indices":38
				}
			]
		},
		{
			"name":"Cube.009",
			"primitives":[
				{
					"attributes":{
						"POSITION":39,
						"NORMAL":40,
						"TEXCOORD_0":41,
						"TANGENT":42
					},
					"indices":9
				}
			]
		},
		{
			"name":"Cube.012",
			"primitives":[
				{
					"attributes":{
						"POSITION":43,
						"NORMAL":44,
						"TEXCOORD_0":45,
						"TANGENT":46
					},
					"indices":28
				}
			]
		},
		{
			"name":"Cube.013",
			"primitives":[
				{
					"attributes":{
						"POSITION":47,
						"NORMAL":48,
						"TEXCOORD_0":49,
						"TANGENT":50
					},
					"indices":28
				}
			]
		}
	],
	"textures":[
		{
			"sampler":0,
			"source":0
		}
	],
	"images":[
		{
			"mimeType":"image/png",
			"name":"colormap",
			"uri":"textures/colormap.png"
		}
	],
	"accessors":[
		{
			"bufferView":0,
			"componentType":5126,
			"count":198,
			"max":[
				0.48900216817855835,
				0.8692549467086792,
				2.5990724563598633
			],
			"min":[
				-0.48900264501571655,
				-0.4191080331802368,
				0.9203959703445435
			],
			"type":"VEC3"
		},
		{
			"bufferView":1,
			"componentType":5126,
			"count":198,
			"type":"VEC3"
		},
		{
			"bufferView":2,
			"componentType":5126,
			"count":198,
			"type":"VEC2"
		},
		{
			"bufferView":3,
			"componentType":5126,
			"count":198,
			"type":"VEC4"
		},
		{
			"bufferView":4,
			"componentType":5123,
			"count":636,
			"type":"SCALAR"
		},
		{
			"bufferView":5,
			"componentType":5126,
			"count":130,
			"max":[
				0.3343456983566284,
				2.098050117492676,
				1.0626728534698486
			],
			"min":[
				-0.3343456983566284,
				-0.2714022397994995,
				-1.9644672870635986
			],
			"type":"VEC3"
		},
		{
			"bufferView":6,
			"componentType":5126,
			"count":130,
			"type":"VEC3"
		},
		{
			"bufferView":7,
			"componentType":5126,
			"count":130,
			"type":"VEC2"
		},
		{
			"bufferView":8,
			"componentType":5126,
			"count":130,
			"type":"VEC4"
		},
		{
			"bufferView":9,
			"componentType":5123,
			"count":408,
			"type":"SCALAR"
		},
		{
			"bufferView":10,
			"componentType":5126,
			"count":130,
			"max":[
				1,
				1,
				1
			],
			"min":[
				-1,
				-1,
				-1
			],
			"type":"VEC3"
		},
		{
			"bufferView":11,
			"componentType":5126,
			"count":130,
			"type":"VEC3"
		},
		{
			"bufferView":12,
			"componentType":5126,
			"count":130,
			"type":"VEC2"
		},
		{
			"bufferView":13,
			"componentType":5123,
			"count":372,
			"type":"SCALAR"
		},
		{
			"bufferView":14,
			"componentType":5126,
			"count":12589,
			"max":[
				0.13372279703617096,
				0.246649831533432,
				0.24694524705410004
			],
			"min":[
				-0.13372282683849335,
				-0.2466500699520111,
				-0.24694477021694183
			],
			"type":"VEC3"
		},
		{
			"bufferView":15,
			"componentType":5126,
			"count":12589,
			"type":"VEC3"
		},
		{
			"bufferView":16,
			"componentType":5126,
			"count":12589,
			"type":"VEC2"
		},
		{
			"bufferView":17,
			"componentType":5126,
			"count":12589,
			"type":"VEC4"
		},
		{
			"bufferView":18,
			"componentType":5123,
			"count":31680,
			"type":"SCALAR"
		},
		{
			"bufferView":19,
			"componentType":5126,
			"count":12589,
			"max":[
				0.13372279703617096,
				0.24664992094039917,
				0.24694497883319855
			],
			"min":[
				-0.13372282683849335,
				-0.24664995074272156,
				-0.24694499373435974
			],
			"type":"VEC3"
		},
		{
			"bufferView":20,
			"componentType":5126,
			"count":12589,
			"type":"VEC3"
		},
		{
			"bufferView":21,
			"componentType":5126,
			"count":12589,
			"type":"VEC2"
		},
		{
			"bufferView":22,
			"componentType":5126,
			"count":12589,
			"type":"VEC4"
		},
		{
			"bufferView":23,
			"componentType":5123,
			"count":31680,
			"type":"SCALAR"
		},
		{
			"bufferView":24,
			"componentType":5126,
			"count":24,
			"max":[
				0.1829705685377121,
				0.05897164344787598,
				0.5749068260192871
			],
			"min":[
				-0.1829705685377121,
				-0.041028380393981934,
				-0.5749069452285767
			],
			"type":"VEC3"
		},
		{
			"bufferView":25,
			"componentType":5126,
			"count":24,
			"type":"VEC3"
		},
		{
			"bufferView":26,
			"componentType":5126,
			"count":24,
			"type":"VEC2"
		},
		{
			"bufferView":27,
			"componentType":5126,
			"count":24,
			"type":"VEC4"
		},
		{
			"bufferView":28,
			"componentType":5123,
			"count":36,
			"type":"SCALAR"
		},
		{
			"bufferView":29,
			"componentType":5126,
			"count":5821010,
			"max":[
				0.6006609201431274,
				0.47326263785362244,
				1.0388176441192627
			],
			"min":[
				-0.6008049249649048,
				-0.3446364402770996,
				-0.5668009519577026
			],
			"type":"VEC3"
		},
		{
			"bufferView":30,
			"componentType":5126,
			"count":5821010,
			"type":"VEC3"
		},
		{
			"bufferView":31,
			"componentType":5126,
			"count":5821010,
			"type":"VEC2"
		},
		{
			"bufferView":32,
			"componentType":5126,
			"count":5821010,
			"type":"VEC4"
		},
		{
			"bufferView":33,
			"componentType":5125,
			"count":9766524,
			"type":"SCALAR"
		},
		{
			"bufferView":34,
			"componentType":5126,
			"count":59803,
			"max":[
				0.37637221813201904,
				0.3089295029640198,
				0.8072684407234192
			],
			"min":[
				-0.3763708174228668,
				-0.10900977998971939,
				0.25219520926475525
			],
			"type":"VEC3"
		},
		{
			"bufferView":35,
			"componentType":5126,
			"count":59803,
			"type":"VEC3"
		},
		{
			"bufferView":36,
			"componentType":5126,
			"count":59803,
			"type":"VEC2"
		},
		{
			"bufferView":37,
			"componentType":5126,
			"count":59803,
			"type":"VEC4"
		},
		{
			"bufferView":38,
			"componentType":5123,
			"count":252528,
			"type":"SCALAR"
		},
		{
			"bufferView":39,
			"componentType":5126,
			"count":130,
			"max":[
				0.3343456983566284,
				1.5578995943069458,
				1.666912317276001
			],
			"min":[
				-0.3343456983566284,
				-0.8115527629852295,
				-1.3602278232574463
			],
			"type":"VEC3"
		},
		{
			"bufferView":40,
			"componentType":5126,
			"count":130,
			"type":"VEC3"
		},
		{
			"bufferView":41,
			"componentType":5126,
			"count":130,
			"type":"VEC2"
		},
		{
			"bufferView":42,
			"componentType":5126,
			"count":130,
			"type":"VEC4"
		},
		{
			"bufferView":43,
			"componentType":5126,
			"count":24,
			"max":[
				1,
				1,
				1
			],
			"min":[
				-1,
				-1,
				-1
			],
			"type":"VEC3"
		},
		{
			"bufferView":44,
			"componentType":5126,
			"count":24,
			"type":"VEC3"
		},
		{
			"bufferView":45,
			"componentType":5126,
			"count":24,
			"type":"VEC2"
		},
		{
			"bufferView":46,
			"componentType":5126,
			"count":24,
			"type":"VEC4"
		},
		{
			"bufferView":47,
			"componentType":5126,
			"count":24,
			"max":[
				1,
				1,
				1
			],
			"min":[
				-1,
				-1,
				-1
			],
			"type":"VEC3"
		},
		{
			"bufferView":48,
			"componentType":5126,
			"count":24,
			"type":"VEC3"
		},
		{
			"bufferView":49,
			"componentType":5126,
			"count":24,
			"type":"VEC2"
		},
		{
			"bufferView":50,
			"componentType":5126,
			"count":24,
			"type":"VEC4"
		}
	],
	"bufferViews":[
		{
			"buffer":0,
			"byteLength":2376,
			"byteOffset":0,
			"target":34962
		},
		{
			"buffer":0,
			"byteLength":2376,
			"byteOffset":2376,
			"target":34962
		},
		{
			"buffer":0,
			"byteLength":1584,
			"byteOffset":4752,
			"target":34962
		},
		{
			"buffer":0,
			"byteLength":3168,
			"byteOffset":6336,
			"target":34962
		},
		{
			"buffer":0,
			"byteLength":1272,
			"byteOffset":9504,
			"target":34963
		},
		{
			"buffer":0,
			"byteLength":1560,
			"byteOffset":10776,
			"target":34962
		},
		{
			"buffer":0,
			"byteLength":1560,
			"byteOffset":12336,
			"target":34962
		},
		{
			"buffer":0,
			"byteLength":1040,
			"byteOffset":13896,
			"target":34962
		},
		{
			"buffer":0,
			"byteLength":2080,
			"byteOffset":14936,
			"target":34962
		},
		{
			"buffer":0,
			"byteLength":816,
			"byteOffset":17016,
			"target":34963
		},
		{
			"buffer":0,
			"byteLength":1560,
			"byteOffset":17832,
			"target":34962
		},
		{
			"buffer":0,
			"byteLength":1560,
			"byteOffset":19392,
			"target":34962
		},
		{
			"buffer":0,
			"byteLength":1040,
			"byteOffset":20952,
			"target":34962
		},
		{
			"buffer":0,
			"byteLength":744,
			"byteOffset":21992,
			"target":34963
		},
		{
			"buffer":0,
			"byteLength":151068,
			"byteOffset":22736,
			"target":34962
		},
		{
			"buffer":0,
			"byteLength":151068,
			"byteOffset":173804,
			"target":34962
		},
		{
			"buffer":0,
			"byteLength":100712,
			"byteOffset":324872,
			"target":34962
		},
		{
			"buffer":0,
			"byteLength":201424,
			"byteOffset":425584,
			"target":34962
		},
		{
			"buffer":0,
			"byteLength":63360,
			"byteOffset":627008,
			"target":34963
		},
		{
			"buffer":0,
			"byteLength":151068,
			"byteOffset":690368,
			"target":34962
		},
		{
			"buffer":0,
			"byteLength":151068,
			"byteOffset":841436,
			"target":34962
		},
		{
			"buffer":0,
			"byteLength":100712,
			"byteOffset":992504,
			"target":34962
		},
		{
			"buffer":0,
			"byteLength":201424,
			"byteOffset":1093216,
			"target":34962
		},
		{
			"buffer":0,
			"byteLength":63360,
			"byteOffset":1294640,
			"target":34963
		},
		{
			"buffer":0,
			"byteLength":288,
			"byteOffset":1358000,
			"target":34962
		},
		{
			"buffer":0,
			"byteLength":288,
			"byteOffset":1358288,
			"target":34962
		},
		{
			"buffer":0,
			"byteLength":192,
			"byteOffset":1358576,
			"target":34962
		},
		{
			"buffer":0,
			"byteLength":384,
			"byteOffset":1358768,
			"target":34962
		},
		{
			"buffer":0,
			"byteLength":72,
			"byteOffset":1359152,
			"target":34963
		},
		{
			"buffer":0,
			"byteLength":69852120,
			"byteOffset":1359224,
			"target":34962
		},
		{
			"buffer":0,
			"byteLength":69852120,
			"byteOffset":71211344,
			"target":34962
		},
		{
			"buffer":0,
			"byteLength":46568080,
			"byteOffset":141063464,
			"target":34962
		},
		{
			"buffer":0,
			"byteLength":93136160,
			"byteOffset":187631544,
			"target":34962
		},
		{
			"buffer":0,
			"byteLength":39066096,
			"byteOffset":280767704,
			"target":34963
		},
		{
			"buffer":0,
			"byteLength":717636,
			"byteOffset":319833800,
			"target":34962
		},
		{
			"buffer":0,
			"byteLength":717636,
			"byteOffset":320551436,
			"target":34962
		},
		{
			"buffer":0,
			"byteLength":478424,
			"byteOffset":321269072,
			"target":34962
		},
		{
			"buffer":0,
			"byteLength":956848,
			"byteOffset":321747496,
			"target":34962
		},
		{
			"buffer":0,
			"byteLength":505056,
			"byteOffset":322704344,
			"target":34963
		},
		{
			"buffer":0,
			"byteLength":1560,
			"byteOffset":323209400,
			"target":34962
		},
		{
			"buffer":0,
			"byteLength":1560,
			"byteOffset":323210960,
			"target":34962
		},
		{
			"buffer":0,
			"byteLength":1040,
			"byteOffset":323212520,
			"target":34962
		},
		{
			"buffer":0,
			"byteLength":2080,
			"byteOffset":323213560,
			"target":34962
		},
		{
			"buffer":0,
			"byteLength":288,
			"byteOffset":323215640,
			"target":34962
		},
		{
			"buffer":0,
			"byteLength":288,
			"byteOffset":323215928,
			"target":34962
		},
		{
			"buffer":0,
			"byteLength":192,
			"byteOffset":323216216,
			"target":34962
		},
		{
			"buffer":0,
			"byteLength":384,
			"byteOffset":323216408,
			"target":34962
		},
		{
			"buffer":0,
			"byteLength":288,
			"byteOffset":323216792,
			"target":34962
		},
		{
			"buffer":0,
			"byteLength":288,
			"byteOffset":323217080,
			"target":34962
		},
		{
			"buffer":0,
			"byteLength":192,
			"byteOffset":323217368,
			"target":34962
		},
		{
			"buffer":0,
			"byteLength":384,
			"byteOffset":323217560,
			"target":34962
		}
	],
	"samplers":[
		{
			"magFilter":9728,
			"minFilter":9984
		}
	],
	"buffers":[
		{
			"byteLength":323217944,
			"uri":"library.bin"
		}
	]
}
